<?xml version="1.0" encoding="iso-8859-1"?>
<!-- Uploaded to: SVG Repo, www.svgrepo.com, Generator: SVG Repo Mixer Tools -->
<svg fill="#000000" height="800px" width="800px" version="1.1" id="Layer_1" xmlns="http://www.w3.org/2000/svg" xmlns:xlink="http://www.w3.org/1999/xlink" 
	 viewBox="0 0 507.901 507.901" xml:space="preserve">
<g>
	<g>
		<path d="M493.9,68.251H14.1c-7.8,0-14.1,6.3-14.1,14.1v126.4c0,7.8,6.3,14.1,14.1,14.1h9.6c7.2,120.8,107.8,216.8,230.3,216.8
			s223-96,230.2-216.8h9.6c7.8,0,14.1-6.3,14.1-14.1v-126.4C508,74.551,501.7,68.251,493.9,68.251z M254,411.451
			c-107,0-194.9-83.4-202-188.6h404C448.8,328.051,361,411.451,254,411.451z M479.6,194.651H28.2v-98.2h183.4v24.6
			c0,7.8,6.3,14.1,14.1,14.1s14.1-6.3,14.1-14.1v-24.6H268v56.9c0,7.8,6.3,14.1,14.1,14.1c7.8,0,14.1-6.3,14.1-14.1v-56.9h183.4
			V194.651z"/>
	</g>
</g>
<g>
	<g>
		<path d="M254,263.951c-29.4,0-53.3,23.9-53.3,53.3c0,29.4,23.9,53.3,53.3,53.3c29.4,0,53.3-23.9,53.3-53.3
			C307.3,287.851,283.4,263.951,254,263.951z M254,342.351c-13.9,0-25.1-11.2-25.1-25.1c0-13.9,11.3-25.1,25.1-25.1
			s25.1,11.2,25.1,25.1C279.1,331.151,267.9,342.351,254,342.351z"/>
	</g>
</g>
</svg>