<?xml version="1.0" encoding="iso-8859-1"?>
<!-- Uploaded to: SVG Repo, www.svgrepo.com, Generator: SVG Repo Mixer Tools -->
<svg fill="#000000" height="800px" width="800px" version="1.1" id="Layer_1" xmlns="http://www.w3.org/2000/svg" xmlns:xlink="http://www.w3.org/1999/xlink" 
	 viewBox="0 0 508 508" xml:space="preserve">
<g>
	<g>
		<path d="M465.75,0H42.35c-23.3,0-42.3,19-42.3,42.3v423.3c0,23.4,19,42.4,42.3,42.4h423.3c23.3,0,42.3-19,42.3-42.3V42.3
			C508.05,19,489.05,0,465.75,0z M465.75,479.8H42.35c-7.8,0-14.1-6.3-14.1-14.1V42.3c0-7.8,6.3-14.1,14.1-14.1h423.3
			c7.8,0,14.1,6.3,14.1,14.1v423.4h0.1C479.85,473.5,473.55,479.8,465.75,479.8z"/>
	</g>
</g>
<g>
	<g>
		<path d="M445.75,117.7h-31.2V80.6c0-7.8-6.3-14.1-14.1-14.1s-14.1,6.3-14.1,14.1v37.2h-31.2c-7.8,0-14.1,6.3-14.1,14.1
			c0,7.8,6.3,14.1,14.1,14.1h31.2v281.5c0,7.8,6.3,14.1,14.1,14.1c7.8,0,14.1-6.3,14.1-14.1V145.9h31.2c7.8,0,14.1-6.3,14.1-14.1
			S453.55,117.7,445.75,117.7z"/>
	</g>
</g>
<g>
	<g>
		<path d="M250.55,154.2h-31.2V80.6c0-7.8-6.3-14.1-14.1-14.1s-14.1,6.3-14.1,14.1v73.6h-31.2c-7.8,0-14.1,6.3-14.1,14.1
			s6.3,14.1,14.1,14.1h31.2v245.1c0,7.8,6.3,14.1,14.1,14.1s14.1-6.3,14.1-14.1V182.4h31.2c7.8,0,14.1-6.3,14.1-14.1
			S258.35,154.2,250.55,154.2z"/>
	</g>
</g>
<g>
	<g>
		<path d="M152.95,238.5h-31.2V80.6c0-7.8-6.3-14.1-14.1-14.1c-7.8,0-14.1,6.3-14.1,14.1v157.9h-31.2c-7.8,0-14.1,6.3-14.1,14.1
			c0,7.8,6.3,14.1,14.1,14.1h31.2v160.7c0,7.8,6.3,14.1,14.1,14.1c7.8,0,14.1-6.3,14.1-14.1V266.7h31.2c7.8,0,14.1-6.3,14.1-14.1
			C167.05,244.8,160.75,238.5,152.95,238.5z"/>
	</g>
</g>
<g>
	<g>
		<path d="M348.15,338.8h-31.2V80.6c0-7.8-6.3-14.1-14.1-14.1c-7.8,0-14.1,6.3-14.1,14.1v258.2h-31.2c-7.8,0-14.1,6.3-14.1,14.1
			c0,7.8,6.3,14.1,14.1,14.1h31.2v60.4c0,7.8,6.3,14.1,14.1,14.1s14.1-6.3,14.1-14.1V367h31.2c7.8,0,14.1-6.3,14.1-14.1
			C362.25,345.1,355.95,338.8,348.15,338.8z"/>
	</g>
</g>
</svg>