<?xml version="1.0" encoding="utf-8"?>
<svg xmlns="http://www.w3.org/2000/svg" viewBox="0 0 500 375" xmlns:bx="https://boxy-svg.com" width="500px" height="375px"><defs><bx:export><bx:file format="svg" path="frame.svg" excluded="true"/><bx:file format="svg" path="frame-2.svg"/></bx:export></defs><path fill-rule="evenodd" fill="rgb(0%,0%,0%)" fill-opacity="1" d="M 166.365 8.418 L 174.127 8.418 L 179.372 13.855 L 171.61 13.855 L 166.365 8.418 Z M 32.597 200.938 L 40.036 208.649 L 40.036 166.352 L 32.597 174.062 L 32.597 180.495 L 25.839 187.5 L 32.597 194.507 L 32.597 200.938 Z M 47.844 167.191 L 47.844 207.813 C 47.844 209.041 46.875 210.046 45.688 210.046 C 44.503 210.046 43.532 209.041 43.532 207.813 L 43.532 167.191 C 43.532 165.96 44.503 164.956 45.688 164.956 C 46.875 164.956 47.844 165.96 47.844 167.191 Z M 467.403 200.938 L 459.965 208.649 L 459.965 166.352 L 467.403 174.062 L 467.403 180.495 L 474.16 187.5 L 467.403 194.507 L 467.403 200.938 Z M 452.158 167.191 L 452.158 207.813 C 452.158 209.041 453.128 210.046 454.313 210.046 C 455.5 210.046 456.47 209.041 456.47 207.813 L 456.47 167.191 C 456.47 165.96 455.5 164.956 454.313 164.956 C 453.128 164.956 452.158 165.96 452.158 167.191 Z M 308.23 357.645 L 275.278 357.645 L 274.25 356.58 L 307.205 356.58 L 306.678 356.033 L 258.298 356.033 L 250 348.59 L 239.2 348.59 L 235.052 352.313 L 104.002 352.313 L 99.626 356.848 L 60.032 356.848 L 49.122 347.06 L 49.122 224.832 L 26.075 200.938 L 26.075 194.507 L 19.317 187.5 L 19.317 177.14 L 19.312 177.14 L 19.317 177.132 L 26.075 170.127 L 38.633 157.11 L 38.633 126.036 L 24.561 140.623 L 24.561 114.276 L 38.633 99.689 L 38.633 94.834 L 24.561 109.419 L 24.561 83.074 L 38.633 68.487 L 38.633 63.63 L 24.561 78.217 L 24.561 53.287 C 24.561 52.058 23.592 51.051 22.405 51.051 C 21.22 51.051 20.251 52.058 20.251 53.287 L 20.251 63.843 L 9.178 52.366 L 9.178 35.925 L 0 26.411 L 34.44 26.411 C 35.628 26.411 36.597 25.406 36.597 24.175 C 36.597 22.947 35.628 21.943 34.44 21.943 L 25.675 21.943 L 31.205 16.248 L 31.205 10.033 L 34.987 6.112 L 34.975 6.099 L 40.818 0 L 72.16 0 L 78.941 7.03 L 152.981 7.03 L 160.954 15.661 L 207.454 15.661 L 208.479 16.724 L 191.162 16.724 L 191.773 17.357 L 224.724 17.357 L 225.749 18.42 L 192.798 18.42 L 193.326 18.967 L 241.702 18.967 L 250 26.411 L 260.8 26.411 L 264.948 22.688 L 396 22.688 L 400.375 18.153 L 439.97 18.153 L 450.88 27.939 L 450.88 150.17 L 473.925 174.062 L 473.925 180.495 L 480.683 187.5 L 480.683 197.862 L 480.693 197.862 L 480.683 197.87 L 473.925 204.875 L 461.368 217.894 L 461.368 248.966 L 475.44 234.38 L 475.44 260.725 L 461.368 275.313 L 461.368 280.17 L 475.44 265.583 L 475.44 291.925 L 461.368 306.513 L 461.368 311.37 L 475.44 296.783 L 475.44 321.715 C 475.44 322.945 476.41 323.95 477.595 323.95 C 478.78 323.95 479.753 322.945 479.753 321.715 L 479.753 311.158 L 490.823 322.635 L 490.823 339.075 L 500 348.59 L 465.56 348.59 C 464.375 348.59 463.405 349.598 463.405 350.825 C 463.405 352.053 464.375 353.06 465.56 353.06 L 474.325 353.06 L 468.798 358.753 L 468.798 364.968 L 465.015 368.89 L 465.028 368.903 L 459.183 375 L 427.843 375 L 421.063 367.97 L 347.02 367.97 L 339.045 359.343 L 292.545 359.343 L 291.52 358.28 L 308.84 358.28 L 308.23 357.645 Z M 324.083 366.583 L 316.323 366.583 L 311.078 361.145 L 318.84 361.145 L 324.083 366.583 Z M 473.925 200.938 L 473.925 194.507 L 480.683 187.5 L 480.683 177.14 L 480.693 177.14 L 480.683 177.132 L 473.925 170.127 L 461.368 157.11 L 461.368 126.036 L 475.44 140.623 L 475.44 114.276 L 461.368 99.689 L 461.368 94.834 L 475.44 109.419 L 475.44 83.074 L 461.368 68.487 L 461.368 63.63 L 475.44 78.217 L 475.44 53.287 C 475.44 52.058 476.41 51.051 477.595 51.051 C 478.78 51.051 479.753 52.058 479.753 53.287 L 479.753 63.843 L 490.823 52.366 L 490.823 35.925 L 500 26.411 L 465.56 26.411 C 464.375 26.411 463.405 25.406 463.405 24.175 C 463.405 22.947 464.375 21.943 465.56 21.943 L 474.325 21.943 L 468.798 16.248 L 468.798 10.033 L 465.015 6.112 L 465.028 6.099 L 459.183 0 L 427.843 0 L 421.063 7.03 L 347.02 7.03 L 339.045 15.661 L 292.545 15.661 L 291.52 16.724 L 308.84 16.724 L 308.23 17.357 L 275.278 17.357 L 274.25 18.42 L 307.205 18.42 L 306.678 18.967 L 258.298 18.967 L 250 26.411 L 239.2 26.411 L 235.052 22.688 L 196.915 22.688 L 196.917 22.688 L 104.002 22.688 L 99.626 18.153 L 60.032 18.153 L 49.122 27.939 L 49.122 150.17 L 26.075 174.062 L 26.075 180.495 L 19.317 187.5 L 19.317 197.862 L 19.312 197.862 L 19.317 197.87 L 26.075 204.875 L 38.633 217.894 L 38.633 248.966 L 24.561 234.38 L 24.561 260.725 L 38.633 275.313 L 38.633 280.17 L 24.561 265.583 L 24.561 291.925 L 38.633 306.513 L 38.633 311.37 L 24.561 296.783 L 24.561 321.715 C 24.561 322.945 23.592 323.95 22.405 323.95 C 21.22 323.95 20.251 322.945 20.251 321.715 L 20.251 311.158 L 9.178 322.635 L 9.178 339.075 L 0 348.59 L 34.44 348.59 C 35.628 348.59 36.597 349.598 36.597 350.825 C 36.597 352.053 35.628 353.06 34.44 353.06 L 25.675 353.06 L 31.205 358.753 L 31.205 364.968 L 34.987 368.89 L 34.975 368.903 L 40.818 375 L 72.16 375 L 78.941 367.97 L 152.981 367.97 L 160.954 359.343 L 207.454 359.343 L 208.479 358.28 L 191.162 358.28 L 191.773 357.645 L 224.724 357.645 L 225.749 356.58 L 192.798 356.58 L 193.326 356.033 L 241.702 356.033 L 250 348.59 L 260.8 348.59 L 264.948 352.313 L 396 352.313 L 400.375 356.848 L 439.97 356.848 L 450.88 347.06 L 450.88 224.832 L 473.925 200.938 Z M 343.783 366.583 L 336.023 366.583 L 330.78 361.145 L 338.538 361.145 L 343.783 366.583 Z M 333.635 366.583 L 325.875 366.583 L 320.63 361.145 L 328.39 361.145 L 333.635 366.583 Z M 175.918 366.583 L 183.678 366.583 L 188.922 361.145 L 181.163 361.145 L 175.918 366.583 Z M 156.216 366.583 L 163.978 366.583 L 169.224 361.145 L 161.462 361.145 L 156.216 366.583 Z M 166.365 366.583 L 174.127 366.583 L 179.372 361.145 L 171.61 361.145 L 166.365 366.583 Z M 324.083 8.418 L 316.323 8.418 L 311.078 13.855 L 318.84 13.855 L 324.083 8.418 Z M 343.783 8.418 L 336.023 8.418 L 330.78 13.855 L 338.538 13.855 L 343.783 8.418 Z M 333.635 8.418 L 325.875 8.418 L 320.63 13.855 L 328.39 13.855 L 333.635 8.418 Z M 175.918 8.418 L 183.678 8.418 L 188.922 13.855 L 181.163 13.855 L 175.918 8.418 Z M 156.216 8.418 L 163.978 8.418 L 169.224 13.855 L 161.462 13.855 L 156.216 8.418"/></svg>