<?xml version="1.0" encoding="iso-8859-1"?>
<!-- Uploaded to: SVG Repo, www.svgrepo.com, Generator: SVG Repo Mixer Tools -->
<!DOCTYPE svg PUBLIC "-//W3C//DTD SVG 1.1//EN" "http://www.w3.org/Graphics/SVG/1.1/DTD/svg11.dtd">
<svg fill="#000000" height="800px" width="800px" version="1.1" id="Capa_1" xmlns="http://www.w3.org/2000/svg" xmlns:xlink="http://www.w3.org/1999/xlink" 
	 viewBox="0 0 511 511" xml:space="preserve">
<g>
	<path d="M436.166,74.834C387.908,26.577,323.747,0,255.5,0S123.092,26.577,74.834,74.834C26.577,123.092,0,187.253,0,255.5
		s26.577,132.408,74.834,180.666C123.092,484.423,187.253,511,255.5,511s132.408-26.577,180.666-74.834
		C484.423,387.908,511,323.747,511,255.5S484.423,123.092,436.166,74.834z M425.559,425.559C380.135,470.984,319.74,496,255.5,496
		s-124.635-25.016-170.059-70.441C40.016,380.135,15,319.74,15,255.5S40.016,130.865,85.441,85.441
		C130.865,40.016,191.26,15,255.5,15s124.635,25.016,170.059,70.441C470.984,130.865,496,191.26,496,255.5
		S470.984,380.135,425.559,425.559z"/>
	<path d="M255.5,263c1.97,0,3.91-0.8,5.3-2.2c1.4-1.39,2.2-3.33,2.2-5.3c0-1.97-0.8-3.91-2.2-5.3c-1.39-1.4-3.33-2.2-5.3-2.2
		c-1.97,0-3.91,0.8-5.3,2.2c-1.4,1.39-2.2,3.33-2.2,5.3c0,1.97,0.8,3.91,2.2,5.3C251.59,262.2,253.53,263,255.5,263z"/>
	<path d="M302.884,258.336c0.112-1.889,0.112-3.783,0-5.672l110.654-110.655c5.949-5.949,9.226-13.859,9.226-22.274
		c0-8.414-3.276-16.325-9.226-22.273c-5.949-5.949-13.859-9.226-22.273-9.226c-8.415,0-16.325,3.276-22.274,9.226L258.336,208.116
		c-1.889-0.112-3.783-0.112-5.672,0L142.009,97.462c-5.949-5.949-13.86-9.226-22.274-9.226s-16.325,3.276-22.273,9.226
		c-5.949,5.949-9.226,13.859-9.226,22.273c0,8.415,3.277,16.325,9.226,22.274l110.654,110.655c-0.112,1.889-0.112,3.783,0,5.672
		L97.462,368.991c-5.949,5.949-9.226,13.86-9.226,22.274s3.277,16.325,9.226,22.273c5.949,5.949,13.859,9.226,22.273,9.226
		s16.325-3.277,22.274-9.226l5.626-5.626c0.014-0.014,0.028-0.028,0.042-0.042l104.987-104.987c0.945,0.056,1.89,0.094,2.836,0.094
		s1.891-0.038,2.836-0.094l110.655,110.655c5.949,5.949,13.86,9.226,22.274,9.226s16.325-3.276,22.273-9.226
		c5.949-5.949,9.226-13.859,9.226-22.273c0-8.415-3.277-16.325-9.226-22.274L302.884,258.336z M358.369,335.034l-74.001-41.827
		c1.639-1.256,3.221-2.621,4.72-4.12c4.101-4.101,7.29-8.773,9.574-13.76L358.369,335.034z M232.519,232.519
		c6.336-6.336,14.658-9.504,22.981-9.504s16.645,3.168,22.981,9.504c12.672,12.672,12.672,33.29,0,45.962s-33.29,12.672-45.962,0
		S219.847,245.191,232.519,232.519z M391.265,103.236c4.407,0,8.551,1.716,11.667,4.832s4.832,7.26,4.832,11.667
		c0,4.408-1.716,8.551-4.832,11.667l-88.938,88.938l60.67-107.34l4.933-4.933C382.713,104.952,386.857,103.236,391.265,103.236z
		 M335.034,152.631l-41.827,74.001c-1.256-1.639-2.621-3.221-4.12-4.72c-4.101-4.101-8.773-7.29-13.76-9.574L335.034,152.631z
		 M108.068,108.068c3.116-3.116,7.259-4.832,11.667-4.832s8.551,1.716,11.667,4.832l88.938,88.938l-107.339-60.67l-4.933-4.933
		c-3.116-3.116-4.833-7.26-4.833-11.667C103.236,115.328,104.952,111.185,108.068,108.068z M152.631,175.966l74.001,41.827
		c-1.639,1.256-3.221,2.621-4.72,4.12c-4.101,4.101-7.29,8.773-9.574,13.76L152.631,175.966z M119.735,407.764
		c-4.408,0-8.551-1.716-11.667-4.833s-4.833-7.259-4.833-11.667s1.716-8.551,4.833-11.667l88.938-88.938l-60.67,107.339
		l-4.933,4.933C128.287,406.048,124.143,407.764,119.735,407.764z M175.966,358.368l41.827-74.001
		c1.256,1.639,2.621,3.221,4.12,4.72c4.101,4.101,8.773,7.29,13.76,9.574L175.966,358.368z M402.932,402.932
		c-3.116,3.116-7.259,4.832-11.667,4.832s-8.551-1.716-11.667-4.832l-88.938-88.938l107.339,60.67l4.933,4.933
		c3.116,3.116,4.833,7.26,4.833,11.667C407.764,395.672,406.048,399.815,402.932,402.932z"/>
</g>
</svg>